<?xml version="1.0" standalone="no"?>
<!DOCTYPE svg PUBLIC "-//W3C//DTD SVG 20010904//EN"
 "http://www.w3.org/TR/2001/REC-SVG-20010904/DTD/svg10.dtd">
<svg version="1.0" xmlns="http://www.w3.org/2000/svg"
 width="512.000000pt" height="512.000000pt" viewBox="0 0 512.000000 512.000000"
 preserveAspectRatio="xMidYMid meet">

<g transform="translate(0.000000,512.000000) scale(0.100000,-0.100000)"
fill="#000000" stroke="none">
<path d="M1317 4494 c-174 -31 -330 -116 -454 -247 -87 -92 -142 -183 -185
-307 l-33 -95 -3 -1195 c-2 -836 0 -1221 8 -1280 14 -102 61 -234 115 -315 56
-86 178 -204 268 -260 89 -55 210 -99 312 -115 48 -7 446 -10 1265 -8 l1195 3
73 23 c154 47 272 122 388 245 64 67 91 106 132 188 88 176 83 90 80 1499 l-3
1235 -23 70 c-99 295 -345 506 -651 560 -121 22 -2365 21 -2484 -1z m2546
-241 c189 -72 335 -229 382 -409 13 -49 15 -152 15 -654 l0 -597 -22 -20 c-15
-14 -47 -25 -92 -32 -120 -18 -209 -93 -241 -205 -14 -49 -35 -72 -325 -362
l-310 -309 -53 -2 c-93 -5 -117 -13 -163 -55 -43 -40 -74 -108 -74 -162 0
-109 99 -206 211 -206 127 0 219 104 205 234 l-6 60 334 336 c332 332 335 335
342 385 10 67 47 105 104 105 30 0 47 -6 65 -25 l25 -24 0 -463 c0 -511 -1
-526 -63 -642 -44 -84 -154 -192 -243 -239 -137 -71 -67 -68 -1421 -65 l-1218
3 -62 23 c-85 32 -175 92 -240 160 -61 63 -124 184 -142 270 -7 35 -11 271
-11 696 0 745 -11 674 111 687 118 13 202 78 235 183 16 51 37 74 308 345
l291 290 43 -11 c119 -30 242 74 242 207 0 193 -229 286 -366 149 -47 -46 -71
-120 -59 -181 l6 -36 -304 -306 c-294 -295 -305 -308 -317 -358 -21 -92 -101
-132 -164 -82 l-26 20 0 412 c0 452 2 464 61 587 44 89 170 214 260 258 134
64 53 61 1399 59 l1225 -2 58 -22z"/>
<path d="M2005 3411 c-11 -5 -33 -23 -50 -41 l-30 -31 -3 -785 -2 -786 22 -39
c14 -25 37 -46 63 -59 49 -24 74 -25 119 -6 18 7 260 154 537 326 277 172 555
344 617 383 63 39 121 82 130 96 23 34 22 119 0 153 -10 14 -64 54 -120 89
-1002 608 -1163 702 -1213 705 -27 2 -59 0 -70 -5z"/>
</g>
</svg>
