<svg width="512" height="512" viewBox="0 0 512 512" fill="none" xmlns="http://www.w3.org/2000/svg">
<path d="M90.0962 2.2678C66.8962 6.40113 46.0962 17.7345 29.5628 35.2011C17.9628 47.4678 10.6295 59.6011 4.89618 76.1345L0.496181 88.8011L0.0961813 248.134C-0.170485 359.601 0.0961812 410.934 1.16285 418.801C3.02951 432.401 9.29618 450.001 16.4962 460.801C23.9628 472.268 40.2295 488.001 52.2295 495.468C64.0962 502.801 80.2295 508.668 93.8295 510.801C100.23 511.734 153.296 512.134 262.496 511.868L421.829 511.468L431.563 508.401C452.096 502.134 467.829 492.134 483.296 475.734C491.829 466.801 495.429 461.601 500.896 450.668C512.629 427.201 511.963 438.668 511.563 250.801L511.163 86.1345L508.096 76.8011C494.896 37.4678 462.096 9.33447 421.296 2.13447C405.163 -0.798867 105.963 -0.665534 90.0962 2.2678ZM429.563 34.4011C454.763 44.0011 474.229 64.9345 480.496 88.9345C482.229 95.4678 482.496 109.201 482.496 176.134V255.734L479.563 258.401C477.563 260.268 473.296 261.734 467.296 262.668C451.296 265.068 439.429 275.068 435.163 290.001C433.296 296.534 430.496 299.601 391.83 338.268L350.496 379.468L343.43 379.734C331.03 380.401 327.83 381.468 321.696 387.068C315.963 392.401 311.83 401.468 311.83 408.668C311.83 423.201 325.03 436.134 339.963 436.134C356.896 436.134 369.163 422.268 367.296 404.934L366.496 396.934L411.03 352.134C455.296 307.868 455.696 307.468 456.629 300.801C457.963 291.868 462.896 286.801 470.496 286.801C474.496 286.801 476.763 287.601 479.163 290.134L482.496 293.334V355.068C482.496 423.201 482.363 425.201 474.096 440.668C468.229 451.868 453.563 466.268 441.696 472.534C423.429 482.001 432.763 481.601 252.229 481.201L89.8295 480.801L81.5628 477.734C70.2295 473.468 58.2295 465.468 49.5628 456.401C41.4295 448.001 33.0295 431.868 30.6295 420.401C29.6962 415.734 29.1628 384.268 29.1628 327.601C29.1628 228.268 27.6962 237.734 43.9628 236.001C59.6962 234.268 70.8962 225.601 75.2962 211.601C77.4295 204.801 80.2295 201.734 116.363 165.601L155.163 126.934L160.896 128.401C176.763 132.401 193.163 118.534 193.163 100.801C193.163 75.0678 162.629 62.6678 144.363 80.9345C138.096 87.0678 134.896 96.9345 136.496 105.068L137.296 109.868L96.7628 150.668C57.5628 190.001 56.0962 191.734 54.4962 198.401C51.6962 210.668 41.0295 216.001 32.6295 209.334L29.1628 206.668V151.734C29.1628 91.4678 29.4295 89.8678 37.2962 73.4678C43.1628 61.6011 59.9628 44.9345 71.9628 39.0678C89.8295 30.5345 79.0295 30.9345 258.496 31.2011L421.829 31.4678L429.563 34.4011Z" fill="#F7F7F7"/>
<path d="M181.83 146.668C180.363 147.334 177.43 149.734 175.163 152.134L171.163 156.268L170.763 260.934L170.496 365.734L173.43 370.934C175.296 374.268 178.363 377.068 181.83 378.801C188.363 382.001 191.696 382.134 197.696 379.601C200.096 378.668 232.363 359.068 269.296 336.134C306.23 313.201 343.296 290.268 351.563 285.068C359.963 279.868 367.696 274.134 368.896 272.268C371.963 267.734 371.83 256.401 368.896 251.868C367.563 250.001 360.363 244.668 352.896 240.001C219.296 158.934 197.83 146.401 191.163 146.001C187.563 145.734 183.296 146.001 181.83 146.668Z" fill="#F7F7F7"/>
</svg>
